<?xml version="1.0" encoding="UTF-8" standalone="no"?>
<svg
   version="1.0"
   width="400"
   height="250"
   viewBox="0 0 2678.000000 1554.000000"
   preserveAspectRatio="xMidYMid meet"
   style="background-color: #1f2937;"
   id="svg66"
   sodipodi:docname="back.svg"
   inkscape:version="1.4.2 (ebf0e940, 2025-05-08)"
   xmlns:inkscape="http://www.inkscape.org/namespaces/inkscape"
   xmlns:sodipodi="http://sodipodi.sourceforge.net/DTD/sodipodi-0.dtd"
   xmlns="http://www.w3.org/2000/svg"
   xmlns:svg="http://www.w3.org/2000/svg">
  <defs
     id="defs66" />
  <sodipodi:namedview
     id="namedview66"
     pagecolor="#ffffff"
     bordercolor="#000000"
     borderopacity="0.25"
     inkscape:showpageshadow="2"
     inkscape:pageopacity="0.0"
     inkscape:pagecheckerboard="0"
     inkscape:deskcolor="#d1d1d1"
     showgrid="false"
     inkscape:zoom="2.430285"
     inkscape:cx="205.94292"
     inkscape:cy="134.55212"
     inkscape:window-width="1512"
     inkscape:window-height="945"
     inkscape:window-x="0"
     inkscape:window-y="37"
     inkscape:window-maximized="0"
     inkscape:current-layer="svg66" />
  <metadata
     id="metadata1">
Created by potrace 1.16, written by Peter Selinger 2001-2019
</metadata>
  <rect
     fill="#1f2937"
     height="1554"
     width="2678"
     x="0"
     y="0"
     id="rect1" />
  <!-- Additional background coverage -->
  <rect
     fill="#1f2937"
     height="2000"
     width="3000"
     x="-120.47627"
     y="-158.95549"
     id="rect2" />
  <g
     transform="matrix(0.1,0,0,-0.1,123.96694,1592.5675)"
     fill="#b89f3d"
     stroke="none"
     id="g66">
    <path
       d="m 4505,2970 -40,-5 -3,-193 c -2,-172 -1,-193 14,-199 38,-14 72,49 44,82 -9,11 -9,23 1,52 7,21 14,39 15,41 1,2 18,0 37,-3 30,-6 36,-12 42,-42 9,-48 39,-99 57,-95 11,2 14,-4 10,-23 -5,-28 2,-30 40,-13 l 26,12 -25,39 c -13,21 -21,42 -18,47 3,5 -4,23 -16,39 l -22,30 32,38 c 44,54 37,126 -16,167 -28,21 -117,34 -178,26 z m 149,-71 c 29,-23 32,-42 14,-81 -12,-25 -18,-27 -85,-30 -68,-3 -72,-2 -67,17 8,31 7,58 -1,77 -16,38 95,52 139,17 z"
       id="path2" />
    <path
       d="m 6323,2968 c -17,-8 -23,-19 -22,-42 0,-17 -3,-45 -6,-62 -5,-22 -2,-40 9,-56 15,-23 15,-27 1,-38 -21,-17 -20,-76 3,-89 15,-8 15,-10 2,-16 -16,-5 -22,-77 -8,-90 3,-4 61,-7 127,-8 l 122,-2 -3,25 c -3,24 -7,25 -81,30 -44,3 -81,2 -84,-2 -18,-31 -36,23 -27,82 l 7,40 h 66 c 72,0 97,10 88,33 -6,17 -101,29 -134,16 -25,-9 -36,0 -23,21 5,8 6,35 3,61 l -6,48 96,-4 c 90,-4 95,-3 101,18 3,11 3,23 0,26 -3,3 -44,6 -92,6 -48,0 -94,4 -102,7 -8,4 -25,2 -37,-4 z"
       id="path3" />
    <path
       d="m 6762,2968 c -5,-7 -10,-30 -10,-52 0,-21 -5,-42 -12,-46 -8,-5 -8,-18 1,-53 9,-36 9,-54 -1,-76 -10,-25 -9,-33 6,-56 13,-19 14,-29 5,-38 -13,-13 -15,-83 -2,-91 5,-4 22,-1 37,4 26,10 26,12 20,65 -4,36 -2,62 6,74 10,16 9,23 -5,39 -21,23 -22,55 -3,71 17,15 18,13 44,-75 24,-79 34,-91 77,-96 23,-2 30,1 33,17 2,11 7,29 12,40 4,11 14,41 21,68 13,47 32,61 43,32 3,-8 1,-27 -4,-41 -6,-14 -8,-29 -5,-34 3,-5 7,-37 10,-72 3,-35 6,-68 7,-75 1,-6 13,-11 27,-10 26,2 26,3 28,97 0,52 -3,100 -9,107 -6,8 -6,19 2,32 12,23 3,171 -10,171 -4,0 -22,-6 -40,-13 -26,-12 -35,-25 -54,-78 -40,-110 -60,-150 -76,-147 -9,2 -14,12 -12,26 2,14 -2,22 -12,22 -11,0 -17,15 -22,49 -3,28 -12,52 -19,55 -7,2 -15,18 -18,34 -6,29 -31,62 -46,62 -5,0 -13,-6 -19,-12 z"
       id="path4" />
    <path
       d="m 4939,2965 c -7,0 -5,-145 3,-158 7,-14 6,-26 -3,-44 -10,-19 -10,-30 0,-59 8,-23 9,-39 3,-47 -5,-7 -12,-29 -14,-49 l -4,-38 h 128 128 v 24 c 0,21 -23,42 -42,38 -3,-1 -38,-3 -77,-6 l -71,-4 v 43 c 0,74 27,92 125,83 24,-2 31,1 33,18 3,19 -3,23 -45,28 -26,4 -63,2 -80,-3 -32,-9 -54,1 -32,14 6,5 8,22 4,46 -11,61 2,69 101,63 69,-4 85,-2 90,10 3,9 -1,22 -10,31 -12,13 -36,15 -126,13 -60,-2 -110,-3 -111,-3 z"
       id="path5" />
    <path
       d="m 5392,2961 c -8,-5 -13,-21 -11,-37 1,-16 -3,-40 -8,-54 -11,-25 -1,-60 17,-60 5,0 2,-12 -6,-27 -17,-34 -18,-85 -2,-101 9,-9 9,-15 0,-24 -16,-16 -15,-73 1,-85 20,-17 165,-6 200,14 42,25 71,77 69,124 -2,20 2,40 8,44 13,8 13,62 0,70 -5,3 -10,15 -10,25 0,30 -38,86 -68,100 -32,15 -171,23 -190,11 z m 121,-49 c 31,-10 62,-23 68,-29 6,-6 13,-46 16,-89 7,-105 -9,-146 -63,-161 -22,-6 -54,-9 -72,-6 l -33,5 2,87 c 1,47 5,91 10,96 4,6 4,29 -1,50 -18,75 -17,75 73,47 z"
       id="path6" />
    <path
       d="m 5883,2963 c -23,-4 -31,-27 -13,-38 6,-4 2,-21 -10,-46 -19,-36 -19,-41 -5,-62 12,-19 13,-30 4,-56 -10,-27 -9,-39 5,-68 16,-34 16,-36 -4,-55 -11,-10 -20,-25 -20,-32 0,-29 29,-37 149,-39 l 120,-2 -6,25 c -3,14 -8,28 -12,31 -3,3 -39,3 -80,0 -66,-6 -75,-4 -87,14 -8,10 -14,27 -14,37 0,25 21,68 34,69 6,1 37,2 69,4 32,2 60,5 63,8 3,3 -1,15 -8,26 -11,19 -19,21 -63,16 -66,-8 -95,10 -78,48 10,20 9,28 -3,37 -31,27 -16,39 41,33 33,-4 60,-1 68,5 8,7 18,7 27,2 28,-18 52,-12 48,12 -5,35 -112,53 -141,23 -13,-13 -16,-13 -21,0 -5,15 -19,16 -63,8 z"
       id="path7" />
    <path
       d="m 7581,2947 c -11,-13 -21,-31 -21,-40 0,-9 -4,-19 -10,-22 -15,-9 -12,-78 4,-101 15,-20 148,-71 174,-66 19,4 14,-17 -14,-65 -24,-41 -28,-44 -57,-38 -18,3 -46,14 -64,22 -26,14 -34,15 -47,4 -50,-42 17,-86 121,-79 49,3 68,9 89,28 55,52 52,108 -11,168 -25,25 -39,32 -55,27 -30,-9 -80,4 -80,21 0,11 -6,13 -20,9 -21,-7 -28,9 -10,20 6,4 8,10 5,15 -3,5 2,21 11,35 18,28 64,34 108,14 19,-9 31,-8 55,2 17,8 31,16 31,19 0,17 -71,40 -116,39 -29,-1 -56,1 -61,4 -6,4 -20,-4 -32,-16 z"
       id="path8" />
    <path
       d="m 8459,2943 c -9,-16 -22,-50 -29,-78 -13,-51 -59,-180 -87,-248 -29,-67 25,-79 61,-13 17,31 24,36 71,41 72,9 90,2 104,-45 11,-37 15,-40 46,-40 44,0 46,21 7,87 -16,26 -31,63 -35,80 -4,18 -16,52 -27,75 -11,23 -20,47 -20,54 0,6 -7,17 -16,25 -10,8 -13,21 -9,37 5,21 3,24 -14,19 -16,-4 -21,0 -21,14 0,27 -13,24 -31,-8 z"
       id="path9" />
    <path
       d="m 7961,2951 c -8,-5 -11,-16 -6,-30 5,-18 14,-21 54,-21 h 48 l -1,-165 c -1,-175 1,-184 47,-185 12,0 17,8 18,28 1,51 1,117 0,192 -2,136 -2,135 58,138 47,3 52,5 49,25 -3,21 -8,22 -128,24 -69,1 -131,-2 -139,-6 z"
       id="path10" />
    <path
       d="m 8829,2948 c -6,-70 -4,-160 2,-164 5,-3 9,0 9,7 0,7 2,10 5,7 3,-2 -2,-20 -12,-38 -12,-26 -16,-56 -14,-119 1,-47 3,-87 5,-88 2,-2 18,0 36,3 l 32,7 -6,65 c -6,53 -4,68 10,83 36,40 95,8 107,-58 11,-60 35,-103 56,-103 49,0 69,33 36,60 -8,7 -15,19 -15,27 0,10 -7,14 -19,10 -17,-4 -18,-1 -11,24 6,21 5,26 -5,23 -7,-3 -16,-1 -20,5 -12,20 4,46 35,58 19,7 30,18 30,30 0,11 5,24 12,31 10,10 8,19 -6,43 -10,16 -15,37 -12,46 4,10 2,14 -8,10 -8,-3 -23,4 -34,16 -19,20 -28,22 -102,17 -45,-3 -84,-2 -87,3 -7,11 -23,8 -24,-5 z m 144,-55 c 66,-17 68,-19 63,-45 -3,-16 -13,-40 -23,-54 -15,-24 -21,-26 -64,-21 -28,4 -51,1 -58,-6 -8,-8 -11,-5 -11,14 0,44 13,129 19,129 3,0 37,-8 74,-17 z"
       id="path11" />
    <path
       d="m 9339,2938 c -12,-10 -27,-18 -34,-18 -36,0 -38,-109 -1,-148 32,-35 56,-46 105,-47 35,0 47,-5 63,-26 16,-22 17,-29 7,-52 -13,-30 -59,-65 -59,-46 0,8 -13,10 -38,6 -31,-4 -41,-1 -50,14 -14,22 -35,25 -50,7 -7,-9 -5,-19 6,-33 29,-35 75,-48 141,-40 50,6 65,12 85,35 41,49 42,150 2,150 -8,0 -16,6 -19,14 -3,7 -26,16 -52,19 -89,13 -120,54 -87,115 16,27 36,28 97,1 50,-22 70,-17 63,17 -2,12 -13,20 -31,22 -15,2 -27,7 -27,12 0,4 -22,10 -50,12 -36,2 -55,-2 -71,-14 z"
       id="path12" />
    <path
       d="m 10420,2951 c -40,-5 -45,-9 -48,-33 -3,-27 -2,-28 43,-24 30,3 48,1 50,-7 8,-21 12,-251 5,-289 -4,-22 -3,-41 3,-47 15,-15 54,-14 63,1 4,6 6,54 5,107 -2,53 -4,128 -5,166 l -1,71 57,-2 c 76,-3 87,19 23,46 -37,16 -50,17 -70,8 -19,-8 -31,-8 -50,0 -14,7 -27,11 -28,10 -1,0 -22,-4 -47,-7 z"
       id="path13" />
    <path
       d="m 10071,2937 c -6,-8 -14,-28 -17,-46 -4,-17 -11,-34 -15,-37 -5,-3 -9,-13 -9,-23 0,-9 -9,-35 -19,-57 -11,-22 -22,-57 -26,-79 -5,-22 -17,-57 -29,-77 -20,-35 -20,-38 -4,-54 21,-22 48,-11 48,19 0,45 30,60 104,52 63,-7 66,-9 83,-44 13,-26 25,-37 46,-39 35,-4 45,20 25,62 -9,17 -26,54 -38,81 -12,28 -26,57 -31,65 -5,8 -12,22 -15,30 -3,8 -10,23 -15,32 -5,10 -9,26 -9,37 0,10 -7,35 -15,55 -16,38 -43,47 -64,23 z"
       id="path14" />
    <path
       d="m 11558,2943 c -15,-2 -29,-12 -32,-21 -7,-23 -8,-110 -4,-262 3,-122 3,-125 26,-124 12,0 65,1 117,2 74,2 95,5 95,16 0,8 5,16 12,18 6,2 8,10 4,16 -5,8 -32,11 -86,8 -109,-5 -107,-9 -106,191 1,90 1,162 1,162 0,-1 -12,-4 -27,-6 z"
       id="path15" />
    <path
       d="m 11155,2931 c -3,-6 -17,-45 -31,-88 -14,-43 -31,-87 -38,-98 -8,-11 -17,-41 -20,-65 -4,-25 -15,-60 -24,-77 -12,-24 -13,-36 -5,-44 18,-18 50,-1 67,36 22,46 55,64 72,40 11,-15 18,-16 45,-6 18,6 34,11 35,11 2,0 7,-18 10,-40 8,-50 24,-64 64,-55 37,8 38,25 5,84 -14,23 -25,54 -25,67 0,28 -8,30 -26,7 -12,-16 -13,-15 -8,13 4,21 1,34 -10,43 -20,17 -21,31 -1,31 20,0 5,40 -21,55 -30,16 -35,27 -29,63 6,30 4,32 -24,32 -16,0 -32,-4 -36,-9 z"
       id="path16" />
    <path
       d="m 12013,2933 c -11,-2 -37,-20 -57,-39 -36,-35 -36,-36 -36,-119 0,-46 -3,-90 -6,-99 -4,-11 -1,-16 10,-16 9,0 17,-6 18,-12 6,-52 21,-78 52,-92 51,-23 59,-24 95,-9 19,7 40,12 47,9 16,-6 43,36 48,74 2,17 1,29 -3,28 -3,-2 -23,-10 -43,-18 -25,-9 -38,-20 -38,-32 0,-23 -52,-25 -70,-3 -7,8 -19,15 -26,15 -16,0 -17,1 -14,110 1,52 8,99 18,122 16,35 20,38 58,38 37,0 43,-3 54,-30 13,-31 47,-47 75,-36 14,5 13,11 -5,46 -12,24 -27,40 -38,40 -10,0 -22,4 -27,9 -12,12 -82,21 -112,14 z"
       id="path17" />
    <path
       d="m 12412,2932 c -24,-8 -33,-51 -18,-81 10,-18 11,-32 5,-42 -5,-8 -9,-74 -8,-146 2,-115 4,-133 18,-133 9,0 22,4 29,8 17,11 29,137 13,146 -22,14 -10,26 27,25 20,0 52,2 71,4 47,7 61,-1 61,-32 0,-15 5,-32 11,-38 8,-8 6,-19 -5,-40 -13,-27 -13,-32 0,-52 19,-26 60,-28 69,-2 3,10 1,31 -5,46 -8,20 -7,38 1,62 7,22 7,38 1,46 -5,7 -9,59 -9,115 0,109 -5,122 -47,122 -15,0 -17,-5 -12,-27 14,-56 -1,-138 -25,-138 -9,0 -24,-6 -33,-14 -12,-10 -16,-11 -16,-1 0,9 -11,11 -35,7 -44,-7 -60,17 -51,75 11,65 -7,103 -42,90 z"
       id="path18" />
    <path
       d="m 12953,2932 c -74,-3 -66,24 -67,-229 -1,-189 -1,-189 56,-159 23,12 29,12 38,1 8,-10 33,-13 86,-12 79,2 90,11 61,52 -12,16 -18,16 -47,7 -43,-16 -95,-15 -107,1 -5,6 -16,31 -23,55 -17,55 -8,63 75,61 86,-1 85,-1 85,25 0,22 -6,26 -46,32 -27,4 -55,2 -70,-5 -14,-6 -29,-11 -33,-11 -13,0 -21,53 -14,94 l 6,36 h 92 c 77,0 94,3 99,17 4,9 3,20 -2,25 -10,10 -96,14 -189,10 z"
       id="path19" />
    <path
       d="m 13336,2923 c -4,-11 -1,-22 9,-29 14,-10 14,-13 0,-24 -19,-16 -22,-229 -3,-248 9,-9 9,-12 0,-12 -7,0 -12,-14 -12,-34 0,-28 4,-35 26,-40 47,-12 53,5 47,120 -5,92 -4,104 10,104 10,0 17,-8 17,-18 0,-10 3,-22 7,-26 10,-10 33,-78 33,-99 0,-29 61,-19 77,13 39,80 51,114 46,127 -5,12 -3,13 13,3 16,-10 19,-23 17,-78 -1,-37 -4,-82 -7,-100 -2,-19 -3,-39 0,-47 7,-18 53,-16 64,4 11,22 11,177 0,207 -6,15 -5,26 1,30 7,4 8,22 4,48 -4,22 -7,52 -6,65 2,40 -53,59 -66,24 -4,-10 -15,-29 -25,-42 -10,-13 -18,-34 -18,-47 0,-12 -9,-43 -19,-67 -11,-25 -17,-48 -14,-51 4,-3 1,-6 -5,-6 -5,0 -17,-3 -26,-6 -12,-4 -16,0 -16,15 0,12 -8,38 -19,59 -10,20 -26,61 -35,89 -24,72 -83,111 -100,66 z"
       id="path20" />
    <path
       d="m 13903,2929 c -8,-8 -8,-398 1,-406 2,-2 15,1 29,6 l 25,10 -2,127 c -1,89 -6,129 -14,132 -16,5 -16,33 1,30 7,-2 13,9 15,26 6,48 -31,99 -55,75 z"
       id="path21" />
    <path
       d="m 15450,2930 c -25,-4 -84,-7 -132,-6 l -88,2 v -27 c 0,-27 3,-28 52,-31 47,-3 52,-5 59,-32 5,-16 6,-94 5,-173 l -4,-144 25,3 c 20,2 28,13 40,47 14,40 13,48 -2,79 -11,25 -13,38 -6,45 14,14 14,72 1,97 -18,34 39,114 59,81 10,-16 61,3 61,23 0,20 -11,46 -19,45 -3,-1 -26,-5 -51,-9 z"
       id="path22" />
    <path
       d="m 17433,2923 c -18,-9 -36,-26 -40,-37 -5,-16 -7,-260 -3,-368 0,-5 13,-8 29,-8 33,0 45,27 30,68 -7,18 -6,41 2,74 11,41 11,50 -4,66 -21,23 -21,28 -1,36 20,8 55,-28 89,-92 33,-61 47,-84 62,-97 6,-5 13,-19 15,-29 4,-25 53,-39 78,-24 16,11 17,15 4,57 -10,36 -11,54 -2,84 10,32 9,43 -5,67 -15,24 -15,29 -2,34 17,6 21,61 5,71 -7,4 -8,23 -5,48 6,41 6,42 -24,44 -37,3 -44,-7 -31,-43 8,-20 7,-32 -5,-50 -19,-30 -19,-43 1,-65 19,-21 12,-67 -12,-76 -20,-7 -60,39 -73,84 -5,18 -23,47 -39,64 -17,18 -36,43 -43,56 -11,20 -10,25 7,38 25,19 7,18 -33,-2 z"
       id="path23" />
    <path
       d="m 14197,2913 c -41,-25 -60,-85 -44,-135 8,-25 18,-38 30,-38 10,0 27,-9 39,-20 15,-14 36,-20 65,-20 38,0 46,-4 63,-32 l 20,-33 -25,-24 c -35,-36 -100,-37 -137,-3 -27,25 -28,25 -48,7 -11,-10 -20,-26 -20,-35 0,-20 91,-60 122,-53 125,25 151,44 155,111 3,50 -10,82 -33,82 -8,0 -17,7 -20,15 -4,10 -20,15 -50,15 -24,0 -44,5 -44,10 0,6 -9,10 -19,10 -12,0 -23,11 -30,32 -10,27 -8,35 9,53 17,18 27,21 63,15 23,-4 50,-11 60,-15 22,-9 47,11 47,37 0,15 -5,19 -20,15 -10,-3 -20,-1 -22,4 -2,5 -32,12 -68,15 -52,4 -71,2 -93,-13 z"
       id="path24" />
    <path
       d="m 14577,2911 c -25,-28 -9,-41 48,-41 h 54 l -2,-170 c -3,-182 -3,-180 49,-180 21,0 24,5 24,34 0,19 -4,38 -10,41 -5,3 -10,15 -10,26 0,10 5,19 10,19 6,0 10,18 10,40 0,22 -4,40 -10,40 -5,0 -10,9 -10,19 0,11 5,23 10,26 15,9 12,48 -5,71 -19,25 -19,44 0,44 8,0 15,-4 15,-10 0,-21 84,-1 102,25 23,31 -43,46 -76,17 -18,-16 -19,-16 -13,0 5,16 -3,17 -83,16 -69,0 -93,-4 -103,-17 z"
       id="path25" />
    <path
       d="m 15711,2913 c -11,-12 -15,-50 -16,-157 -1,-78 1,-165 3,-194 5,-50 6,-53 31,-50 23,3 27,8 33,58 4,32 3,69 -3,88 -13,39 -8,48 17,34 12,-7 25,-7 36,-1 19,10 20,10 38,-48 7,-24 17,-43 22,-43 4,0 15,-18 24,-40 10,-24 23,-40 33,-40 9,0 26,-3 39,-6 25,-7 32,20 7,30 -8,3 -15,14 -15,24 0,10 -4,22 -9,28 -5,5 -16,28 -24,51 -14,41 -14,42 19,82 28,36 31,47 27,84 -6,58 -10,67 -25,62 -7,-3 -18,5 -23,17 -7,16 -20,24 -40,25 -155,11 -160,11 -174,-4 z m 191,-67 c 14,-21 8,-66 -12,-86 -20,-20 -63,-26 -107,-14 -20,6 -23,13 -23,63 v 57 l 68,-4 c 37,-3 70,-10 74,-16 z"
       id="path26" />
    <path
       d="m 16271,2917 c -6,-8 -8,-17 -5,-20 4,-3 -3,-25 -14,-49 -11,-24 -24,-60 -27,-80 -4,-21 -13,-42 -21,-49 -8,-6 -14,-18 -14,-26 0,-8 -12,-34 -26,-58 -14,-25 -23,-49 -19,-55 3,-5 -1,-17 -9,-26 -24,-24 -19,-34 17,-34 39,0 57,15 57,46 0,31 11,36 95,38 68,2 74,1 84,-21 6,-13 11,-35 11,-49 0,-22 3,-24 23,-19 37,12 41,22 23,59 -36,79 -45,104 -67,181 -12,44 -26,84 -31,90 -4,5 -8,19 -8,31 0,12 -11,29 -25,38 -29,19 -30,19 -44,3 z"
       id="path27" />
    <path
       d="m 17142,2915 -34,-15 4,-117 c 2,-82 7,-118 16,-121 6,-2 12,-8 12,-14 0,-6 -6,-5 -15,2 -9,7 -17,11 -19,9 -6,-6 9,-137 17,-145 3,-3 18,-4 32,0 21,5 25,12 25,41 0,18 -5,37 -10,40 -8,5 -8,11 0,20 6,7 10,70 9,164 -1,83 -2,151 -3,151 -1,-1 -16,-7 -34,-15 z"
       id="path28" />
    <path
       d="m 16640,2905 c -8,-10 -11,-33 -8,-64 3,-27 1,-55 -3,-63 -4,-7 -3,-63 1,-123 7,-81 6,-111 -3,-117 -18,-11 30,-25 88,-26 28,0 78,9 112,20 56,20 64,25 78,62 14,33 15,56 9,121 -5,44 -7,87 -6,95 4,28 -8,58 -25,64 -10,3 -31,14 -48,25 -39,25 -176,29 -195,6 z m 166,-53 c 34,-27 42,-52 43,-137 1,-76 -1,-82 -29,-108 -24,-23 -37,-28 -72,-25 -49,3 -45,-7 -52,153 -6,116 -3,123 42,128 20,2 39,4 42,5 3,1 15,-6 26,-16 z"
       id="path29" />
    <path
       d="m 17983,2912 c -5,-4 -12,-15 -16,-24 -7,-20 -22,-23 -32,-8 -11,18 -26,10 -20,-11 5,-15 2,-22 -13,-26 -17,-4 -18,-8 -9,-33 8,-22 7,-35 -5,-61 -14,-29 -15,-35 -1,-55 11,-17 12,-28 4,-43 -14,-25 -6,-46 32,-91 48,-57 69,-64 130,-46 82,25 117,50 117,87 0,16 5,39 10,50 8,15 7,26 -6,48 -15,25 -25,30 -68,33 -62,5 -86,-5 -86,-37 0,-25 15,-41 24,-26 11,17 61,-4 64,-27 2,-12 -1,-22 -7,-22 -5,0 -13,-9 -16,-21 -4,-11 -19,-25 -33,-30 -37,-14 -70,6 -95,60 -17,36 -18,49 -10,72 6,16 9,46 6,68 -5,34 -1,43 31,77 33,37 35,38 36,15 0,-19 4,-22 22,-18 27,7 58,-18 58,-45 0,-17 5,-19 33,-13 43,10 47,13 39,33 -15,36 -37,62 -54,62 -9,0 -18,8 -20,17 -2,14 -15,18 -54,19 -28,1 -55,-1 -61,-4 z"
       id="path30" />
    <path
       d="m 18758,2914 c -3,-2 -27,-6 -54,-8 -27,-2 -50,-9 -52,-16 -3,-7 -12,-20 -21,-29 -18,-18 -20,-30 -23,-170 -2,-109 1,-118 62,-156 43,-27 87,-38 95,-25 3,5 19,10 34,10 19,0 37,11 59,36 39,44 41,71 7,80 -30,7 -65,-18 -65,-47 0,-50 -92,-21 -116,36 -29,70 -12,186 31,218 24,17 26,17 62,-2 21,-11 44,-29 51,-40 14,-25 35,-27 52,-6 10,12 6,21 -18,50 -28,35 -95,79 -104,69 z"
       id="path31" />
    <path
       d="m 19142,2891 c -50,-18 -71,-49 -72,-101 0,-20 -5,-41 -11,-47 -8,-8 -8,-17 1,-33 7,-12 9,-35 6,-51 -9,-46 41,-129 81,-135 8,-2 20,-7 26,-13 15,-15 42,-14 102,6 48,16 53,21 64,60 6,24 11,90 11,146 0,100 -1,104 -27,130 -31,29 -92,58 -120,56 -10,-1 -38,-8 -61,-18 z m 101,-51 c 35,-27 62,-115 48,-153 -6,-16 -11,-37 -11,-48 0,-11 -10,-34 -22,-52 -13,-18 -24,-34 -25,-36 -1,-1 -8,1 -15,5 -7,5 -22,9 -32,9 -13,0 -30,17 -48,49 -26,43 -28,53 -17,72 7,14 10,41 6,66 -5,41 -3,45 35,76 47,38 48,38 81,12 z"
       id="path32" />
    <path
       d="m 4383,2293 c -3,-8 0,-19 8,-24 11,-6 11,-14 2,-39 -12,-32 -9,-76 7,-95 6,-7 5,-16 -1,-22 -16,-16 -21,-206 -6,-215 8,-5 7,-14 -2,-31 -7,-14 -10,-30 -7,-36 7,-11 105,-4 119,9 14,13 -5,40 -28,40 h -24 v 181 l -1,180 30,11 c 29,10 32,13 34,40 2,19 -124,20 -131,1 z"
       id="path33" />
    <path
       d="m 9503,2274 c -7,-19 14,-44 38,-44 11,0 19,-1 20,-2 0,-2 3,-83 5,-181 l 4,-178 -31,-6 c -29,-5 -59,-47 -44,-61 3,-3 5,-1 5,5 0,12 44,10 74,-2 43,-18 70,38 45,97 -9,22 -9,32 0,41 15,15 14,70 -1,85 -10,10 -10,17 0,32 15,24 15,55 1,81 -7,14 -7,29 3,55 10,30 10,39 -4,62 -14,22 -25,27 -63,29 -33,1 -48,-2 -52,-13 z"
       id="path34" />
    <path
       d="m 4843,2253 c -24,-3 -33,-9 -33,-23 0,-10 5,-22 10,-25 13,-8 13,-48 0,-61 -6,-6 -6,-23 1,-48 8,-27 7,-42 0,-49 -6,-6 -11,-26 -11,-44 0,-22 -9,-43 -28,-64 -28,-31 -28,-31 -61,-15 -31,17 -33,16 -61,-7 -32,-28 -30,-37 11,-37 15,0 31,-4 34,-10 17,-27 129,10 154,51 11,18 16,66 18,182 2,86 2,156 1,155 -2,0 -18,-3 -35,-5 z"
       id="path35" />
    <path
       d="m 5137,2229 c -26,-17 -48,-36 -49,-42 -2,-14 -7,-63 -12,-127 -2,-25 -5,-49 -7,-55 -4,-14 11,-57 27,-75 45,-52 56,-60 78,-60 19,0 23,4 19,20 -3,11 0,20 6,20 6,0 11,-9 11,-20 0,-54 138,12 142,68 3,59 8,169 8,196 0,17 -9,40 -22,54 -58,61 -129,69 -201,21 z m 153,-95 c 13,-52 12,-111 0,-119 -5,-3 -10,-17 -10,-30 0,-33 -47,-68 -80,-60 -14,4 -32,8 -40,9 -19,4 -29,54 -28,146 1,83 17,120 52,120 11,0 28,5 36,10 21,13 59,-27 70,-76 z"
       id="path36" />
    <path
       d="m 5567,2242 c -14,-15 -16,-47 -17,-191 -1,-100 2,-177 8,-183 5,-5 20,-8 33,-6 23,3 24,7 25,86 1,45 3,84 5,87 2,2 33,5 67,6 78,3 82,-2 82,-98 0,-74 5,-85 46,-90 21,-3 22,1 26,84 2,49 0,108 -5,133 -6,28 -6,45 0,47 12,4 4,114 -9,131 -6,6 -19,12 -30,12 -17,0 -19,-6 -17,-37 3,-50 -9,-99 -30,-116 -9,-8 -45,-18 -80,-22 l -64,-7 6,63 c 9,107 -7,144 -46,101 z"
       id="path37" />
    <path
       d="m 6056,2237 c -11,-17 -14,-58 -12,-167 1,-80 5,-151 10,-158 4,-7 5,-20 2,-30 -8,-25 9,-49 26,-35 23,19 43,103 30,124 -17,27 -15,54 8,80 l 20,24 18,-24 c 9,-13 29,-37 45,-53 15,-16 27,-37 27,-45 0,-19 77,-93 96,-93 25,0 34,81 15,128 -10,25 -11,36 -2,45 15,15 14,42 -1,68 -10,17 -10,23 0,26 20,8 15,97 -7,117 -20,18 -27,14 -50,-32 -10,-18 -9,-29 5,-58 16,-33 16,-37 -1,-68 -11,-19 -16,-44 -13,-60 3,-14 1,-29 -3,-32 -5,-3 -9,2 -9,11 0,8 -7,18 -15,21 -10,4 -13,13 -10,25 5,14 -3,28 -23,47 -16,15 -42,52 -57,82 -38,75 -74,96 -99,57 z"
       id="path38" />
    <path
       d="m 6620,2250 c 0,-4 -11,-11 -25,-14 -27,-7 -64,-75 -61,-111 4,-42 28,-73 60,-78 80,-13 131,-34 146,-60 14,-25 14,-28 -10,-44 -34,-25 -106,-33 -131,-15 -25,17 -63,12 -67,-10 -8,-40 113,-69 197,-46 51,13 72,49 66,117 -4,56 -42,89 -109,94 -58,5 -86,29 -86,74 0,45 33,59 109,44 59,-12 71,-9 71,18 0,13 -10,21 -32,26 -51,11 -128,14 -128,5 z"
       id="path39" />
    <path
       d="m 7348,2254 c -4,-4 -18,-8 -32,-9 -48,-6 -66,-17 -72,-43 -3,-15 -8,-34 -12,-42 -9,-24 -10,-190 0,-196 5,-3 6,-14 3,-24 -8,-25 73,-90 85,-69 7,11 10,10 15,-3 12,-31 74,-18 118,24 44,42 56,93 22,93 -11,0 -24,-10 -30,-22 -5,-13 -15,-23 -21,-23 -6,0 -17,-7 -24,-15 -19,-23 -63,-19 -80,8 -43,65 -47,202 -8,245 31,32 78,29 119,-8 17,-17 38,-29 46,-26 18,7 17,42 -2,50 -8,3 -15,14 -15,24 0,14 -9,21 -32,25 -18,4 -42,9 -53,12 -11,3 -24,3 -27,-1 z"
       id="path40" />
    <path
       d="m 7765,2250 c -4,-7 -19,-9 -37,-4 -29,6 -30,5 -24,-20 5,-19 3,-26 -9,-26 -17,0 -20,-16 -5,-25 6,-3 10,-26 10,-50 0,-24 -4,-47 -10,-50 -5,-3 -10,-15 -10,-27 0,-14 5,-18 15,-14 13,5 15,0 9,-32 -4,-20 -10,-44 -14,-52 -14,-27 3,-85 26,-88 42,-6 50,30 32,133 -2,17 3,20 39,23 34,3 42,0 48,-17 7,-23 70,-130 84,-144 5,-5 22,-6 36,-3 24,6 27,10 21,39 -4,17 -17,41 -30,52 -53,44 -59,89 -16,113 17,9 29,24 29,32 -1,8 1,27 5,42 10,34 -12,88 -36,88 -9,0 -21,6 -25,14 -10,17 -129,31 -138,16 z m 20,-50 c 3,-5 24,-10 45,-10 76,0 101,-79 36,-114 -31,-16 -34,-16 -65,1 -25,14 -35,15 -38,6 -3,-7 -8,-13 -12,-13 -12,0 -7,62 7,87 6,12 9,29 6,37 -7,17 11,22 21,6 z"
       id="path41" />
    <path
       d="m 8249,2242 c -12,-8 -19,-9 -19,-3 0,17 -32,13 -46,-6 -16,-21 -18,-85 -4,-99 6,-6 5,-24 -4,-49 -12,-35 -13,-75 -8,-192 2,-28 6,-33 26,-33 12,0 38,-5 56,-12 25,-8 35,-8 38,0 2,8 22,10 61,6 61,-7 88,7 75,40 -5,12 -21,16 -73,18 -36,0 -76,0 -88,-1 -24,-2 -26,4 -38,87 -5,38 -3,43 12,38 27,-8 161,-11 168,-4 3,3 3,18 -1,33 -6,25 -9,26 -43,20 -20,-4 -40,-7 -46,-7 -5,1 -29,2 -53,3 -37,1 -42,4 -36,21 3,10 0,25 -6,33 -9,11 -7,20 9,43 11,16 27,34 35,41 12,10 14,9 10,-6 -5,-16 3,-18 73,-18 68,0 78,2 81,19 2,10 -1,23 -7,29 -16,16 -149,15 -172,-1 z"
       id="path42" />
    <path
       d="m 8616,2223 c -15,-29 -11,-78 7,-101 7,-9 6,-11 -7,-6 -13,5 -16,-2 -16,-44 0,-40 4,-52 23,-65 12,-8 19,-18 15,-22 -4,-4 -14,-2 -22,4 -12,10 -14,3 -10,-50 2,-35 8,-67 14,-73 5,-5 52,-11 103,-12 50,-1 100,-5 111,-9 21,-9 37,10 34,40 -3,18 -13,21 -89,26 -47,3 -91,9 -97,13 -7,4 -12,27 -12,50 v 43 l 57,6 c 31,3 69,3 85,0 26,-5 28,-3 28,26 v 31 h -68 c -39,0 -73,-5 -80,-12 -17,-17 -20,-10 -23,47 -1,28 -7,56 -12,63 -13,17 -1,28 16,14 7,-6 19,-7 26,-3 7,5 44,6 83,3 72,-5 87,2 88,38 0,13 -20,16 -120,18 l -119,2 z"
       id="path43" />
    <path
       d="m 9065,2213 c -10,-23 -14,-51 -10,-73 3,-19 1,-50 -4,-68 -7,-23 -6,-39 4,-58 10,-19 11,-34 3,-54 -9,-28 -6,-79 7,-99 3,-6 19,-11 34,-11 28,0 28,1 27,61 -1,42 2,63 11,66 7,3 13,13 13,23 0,11 13,25 30,34 33,16 35,14 19,-16 -9,-17 -8,-23 4,-30 9,-4 30,-38 47,-74 22,-46 35,-64 45,-60 8,3 31,-2 51,-10 l 36,-15 -19,28 c -11,15 -23,37 -27,47 -3,11 -26,49 -50,85 -24,36 -47,82 -51,102 -6,33 -4,37 18,43 14,3 28,15 32,25 3,10 17,31 30,45 32,35 31,46 -2,46 -33,-1 -82,-41 -109,-89 -19,-35 -72,-90 -86,-91 -5,0 -8,16 -8,35 0,19 5,35 11,35 12,0 4,52 -13,88 -16,31 -25,28 -43,-15 z"
       id="path44" />
    <path
       d="m 10500,2228 c -33,-17 -40,-28 -33,-57 5,-21 3,-23 -16,-18 -20,5 -21,2 -17,-33 2,-22 7,-43 10,-49 11,-17 67,-40 127,-53 32,-6 60,-17 63,-24 7,-18 -19,-86 -37,-95 -8,-5 -36,-4 -63,2 -107,23 -104,23 -104,1 0,-52 149,-77 219,-36 70,41 63,127 -14,182 -26,18 -50,30 -55,27 -18,-11 -78,25 -82,50 -6,28 -2,35 33,57 25,16 74,14 85,-3 3,-5 16,-9 30,-9 19,0 24,5 24,24 0,14 -3,27 -7,29 -21,13 -140,16 -163,5 z"
       id="path45" />
    <path
       d="m 11650,2229 c 0,-9 -6,-22 -14,-28 -8,-7 -18,-26 -21,-43 -4,-16 -14,-37 -24,-47 -9,-9 -25,-42 -36,-74 -16,-47 -21,-54 -29,-40 -5,10 -16,24 -23,31 -7,7 -13,24 -13,38 0,13 -4,32 -10,42 -5,9 -19,41 -32,70 -21,47 -26,52 -55,52 h -33 v -193 c 0,-107 2,-196 5,-199 3,-2 18,-3 35,0 22,3 30,10 30,26 1,52 0,64 -3,118 -3,31 -1,62 3,68 9,15 30,4 30,-14 0,-8 7,-27 15,-42 8,-16 15,-39 15,-52 0,-44 75,-42 86,3 3,14 10,25 15,25 5,0 12,14 17,32 4,17 13,33 20,36 9,3 12,-18 13,-75 1,-43 0,-88 0,-100 -2,-25 16,-40 31,-25 6,6 17,8 25,5 12,-5 14,22 13,173 -1,99 0,188 2,198 2,10 -3,21 -9,23 -8,3 -13,-4 -13,-17 v -22 l -20,23 c -15,19 -19,20 -20,8 z"
       id="path46" />
    <path
       d="m 11926,2216 c -19,-30 -21,-65 -5,-100 9,-19 9,-29 1,-39 -14,-16 -14,-170 -1,-205 6,-15 15,-30 22,-34 13,-8 212,-2 227,7 16,10 12,32 -7,41 -16,6 -39,9 -140,13 -25,1 -71,77 -56,92 13,13 73,18 118,10 55,-10 65,-5 65,35 0,37 -14,43 -51,23 -12,-6 -28,-7 -37,-3 -21,10 -30,11 -66,13 -28,1 -28,2 -22,43 10,64 16,67 111,62 88,-5 104,2 84,34 -10,17 -24,19 -88,19 -42,0 -90,3 -107,7 -26,6 -34,3 -48,-18 z"
       id="path47" />
    <path
       d="m 10950,2223 c -32,-6 -50,-21 -50,-42 0,-9 -5,-22 -11,-28 -15,-15 -19,-94 -6,-110 6,-8 6,-18 0,-25 -15,-22 -16,-75 0,-81 8,-3 17,-19 20,-36 5,-23 13,-32 34,-37 15,-4 40,-13 55,-21 24,-12 35,-11 77,3 46,15 51,20 71,69 17,43 21,68 17,127 -5,85 -19,145 -40,166 -15,15 -118,24 -167,15 z m 118,-53 c 20,-26 23,-41 25,-138 2,-96 0,-108 -14,-105 -10,3 -18,-3 -22,-16 -8,-31 -54,-28 -85,7 -23,23 -26,38 -30,108 -4,104 11,146 59,161 19,6 36,11 39,11 3,1 15,-12 28,-28 z"
       id="path48" />
    <path
       d="m 12608,2200 c -7,-46 -3,-368 4,-376 12,-11 57,24 64,51 3,14 1,39 -5,56 -6,17 -8,41 -5,53 4,18 11,21 45,18 33,-4 42,-9 50,-31 13,-35 28,-69 50,-111 15,-29 24,-35 53,-38 24,-1 36,2 36,10 0,25 -54,118 -72,123 -30,10 -20,42 32,93 16,17 30,40 30,52 0,31 -38,100 -56,100 -8,0 -25,7 -38,15 -16,11 -45,14 -103,12 -78,-2 -81,-3 -85,-27 z m 205,-48 c 19,-19 19,-20 -2,-67 -17,-39 -24,-46 -38,-39 -10,4 -37,7 -59,7 -35,-2 -43,2 -52,23 -10,20 -8,30 8,56 11,18 28,36 37,40 28,12 85,1 106,-20 z"
       id="path49" />
    <path
       d="m 13170,2219 c -14,-3 -34,-5 -45,-2 -33,6 -52,-41 -41,-100 7,-35 6,-54 -2,-67 -9,-15 -8,-25 6,-49 14,-25 15,-34 5,-51 -16,-24 -16,-57 -2,-99 12,-35 15,-35 123,-21 55,7 74,6 92,-6 24,-16 28,-13 38,28 6,25 3,28 -26,32 -18,3 -61,5 -96,3 -69,-2 -65,-6 -76,74 l -4,37 61,4 c 34,3 67,1 74,-4 18,-15 33,0 33,31 0,27 -3,29 -42,31 -51,2 -65,2 -98,-2 -21,-3 -26,2 -28,26 -2,16 1,33 7,39 6,6 11,19 11,29 0,15 12,18 88,20 85,3 87,3 87,28 0,24 -2,25 -70,26 -38,0 -81,-3 -95,-7 z"
       id="path50" />
    <path
       d="m 13554,2197 c -19,-16 -34,-35 -34,-43 0,-8 -6,-23 -12,-34 -28,-44 53,-120 128,-120 47,0 66,-17 80,-74 6,-25 5,-28 -14,-22 -14,5 -24,1 -30,-10 -8,-14 -18,-15 -55,-10 -25,4 -51,14 -57,21 -23,28 -50,12 -50,-31 0,-28 73,-53 141,-50 57,3 66,7 90,36 15,18 30,48 34,67 8,44 -11,93 -36,93 -10,0 -23,9 -28,19 -9,16 -17,18 -46,11 -25,-6 -38,-4 -46,6 -6,8 -17,14 -23,14 -6,0 -17,14 -24,32 -10,28 -9,33 11,47 30,22 97,32 97,14 0,-13 61,-19 73,-7 3,4 0,19 -9,35 -12,24 -21,29 -54,30 -22,1 -54,2 -71,3 -20,1 -42,-9 -65,-27 z"
       id="path51" />
    <path
       d="m 13944,2216 c -13,-34 0,-51 46,-56 l 45,-5 2,-155 c 1,-85 2,-161 2,-167 1,-8 14,-13 31,-13 39,0 52,40 24,71 -17,19 -18,21 -1,30 19,11 22,50 6,80 -7,15 -7,24 1,33 5,8 9,40 8,72 l -3,58 46,-3 c 47,-2 84,18 76,43 -5,15 -85,22 -177,16 -41,-3 -76,-2 -78,2 -6,13 -22,9 -28,-6 z"
       id="path52" />
    <path
       d="m 10140,2200 c -10,-19 -12,-19 -34,-5 -22,14 -25,14 -40,0 -19,-20 -13,-35 15,-35 10,0 19,-7 19,-15 0,-8 -7,-15 -15,-15 -9,0 -15,-9 -15,-24 0,-32 19,-44 35,-23 18,24 23,21 27,-15 4,-45 32,-49 47,-8 9,28 13,30 32,20 29,-16 35,-5 20,36 -11,32 -11,37 6,49 27,20 5,39 -30,26 -24,-9 -27,-8 -27,9 0,26 -26,26 -40,0 z"
       id="path53" />
    <path
       d="m 14386,2211 c -3,-4 -4,-93 -3,-197 l 2,-189 33,-3 32,-3 v 70 c 0,38 5,82 11,98 9,25 12,26 20,11 6,-10 20,-18 32,-18 18,0 27,-13 51,-73 16,-39 32,-76 36,-80 12,-14 68,-17 73,-4 4,11 -45,132 -59,146 -3,3 -9,-1 -14,-9 -5,-8 -13,-11 -17,-6 -4,4 8,22 28,39 20,18 41,42 48,55 23,43 -11,135 -57,154 -32,13 -209,21 -216,9 z m 195,-73 c 22,-28 24,-51 4,-68 -8,-7 -15,-22 -15,-34 0,-17 -2,-18 -10,-6 -5,9 -26,14 -57,15 -44,0 -48,2 -49,25 -1,14 -5,33 -9,43 -12,29 13,47 67,47 39,0 54,-5 69,-22 z"
       id="path54" />
    <path
       d="m 15240,2205 c 0,-8 -6,-12 -14,-9 -24,9 -76,-28 -97,-69 -16,-29 -18,-45 -11,-71 5,-18 7,-55 5,-82 -4,-40 0,-55 19,-84 26,-38 91,-80 124,-80 40,0 95,30 107,58 8,18 18,26 30,24 15,-3 17,1 11,25 -4,15 -8,29 -9,31 -7,8 -55,-20 -65,-38 -6,-11 -19,-20 -28,-20 -10,0 -22,-4 -28,-9 -20,-20 -59,0 -78,39 -16,33 -18,52 -12,111 3,40 9,82 12,95 7,26 44,36 98,27 32,-5 36,-9 34,-32 -3,-23 1,-26 27,-26 24,0 31,5 33,23 4,28 -11,47 -60,78 -43,27 -98,32 -98,9 z"
       id="path55" />
    <path
       d="m 15554,2194 c -3,-13 -3,-28 1,-33 8,-14 41,-14 67,0 11,6 22,8 25,5 10,-10 13,-185 3,-191 -6,-4 -7,-11 -4,-17 4,-6 8,-41 8,-77 l 1,-65 36,-1 35,-2 -2,161 c -1,131 1,164 14,179 18,21 36,23 29,2 -5,-11 -1,-12 20,-4 15,5 32,8 40,5 9,-4 13,4 13,25 0,29 -1,30 -34,23 -19,-3 -40,-3 -46,1 -6,4 -54,8 -106,9 -91,3 -95,2 -100,-20 z"
       id="path56" />
    <path
       d="m 16335,2204 c -8,-6 -26,-27 -39,-46 -22,-33 -23,-44 -22,-156 1,-120 1,-120 31,-148 34,-32 74,-41 145,-32 29,3 91,35 102,52 12,17 7,236 -6,260 -6,11 -23,33 -38,48 -23,22 -38,27 -92,30 -38,2 -72,-2 -81,-8 z m 132,-66 c 14,-19 37,-134 28,-147 -3,-7 -8,-27 -10,-47 -4,-40 -17,-60 -56,-79 -29,-16 -45,-9 -28,12 9,10 4,13 -26,13 -31,0 -36,3 -31,17 4,9 3,19 -2,22 -13,8 3,188 18,206 15,18 94,20 107,3 z"
       id="path57" />
    <path
       d="m 14870,2192 c 0,-10 -5,-23 -10,-28 -7,-7 -7,-19 -1,-36 5,-14 8,-87 5,-162 l -3,-137 25,-11 c 36,-17 45,2 42,82 -1,36 1,79 6,97 5,24 3,40 -11,63 -12,21 -14,33 -7,38 21,14 23,43 7,77 -18,38 -53,49 -53,17 z"
       id="path58" />
    <path
       d="m 16013,2183 c 3,-16 8,-35 12,-44 3,-9 -1,-23 -9,-32 -19,-18 -21,-48 -4,-65 9,-9 8,-21 -2,-52 -10,-29 -10,-46 -3,-63 6,-12 8,-46 5,-75 -4,-43 -2,-52 12,-52 9,0 16,5 16,10 0,6 10,10 21,10 20,0 21,4 15,41 -4,23 -2,46 3,53 6,7 7,27 1,51 -4,22 -7,86 -6,143 1,56 -2,102 -6,102 -4,0 -8,-8 -8,-17 -1,-17 -1,-17 -11,0 -5,9 -17,17 -26,17 -12,0 -14,-7 -10,-27 z"
       id="path59" />
    <path
       d="m 16769,2194 c -11,-14 -23,-121 -19,-179 1,-22 8,-152 9,-173 1,-33 30,-40 52,-13 15,19 17,36 13,126 -4,71 -2,105 5,105 6,0 24,-24 41,-53 16,-29 41,-63 55,-75 14,-12 25,-31 25,-42 0,-19 62,-90 79,-90 19,0 30,29 31,76 2,95 -5,212 -12,220 -13,13 -9,34 7,34 19,0 19,30 -1,58 -14,20 -18,21 -41,9 -21,-11 -25,-21 -27,-60 -1,-32 2,-47 11,-47 25,0 23,-20 -2,-30 -20,-8 -25,-14 -17,-23 6,-7 14,-37 17,-67 l 7,-55 -21,25 c -11,14 -21,31 -21,39 0,8 -11,29 -24,46 -14,18 -39,60 -56,93 -21,42 -41,66 -62,76 -38,19 -33,19 -49,0 z"
       id="path60" />
    <path
       d="m 17293,2195 c -13,-5 -23,-15 -23,-21 0,-6 -7,-18 -16,-25 -12,-10 -14,-23 -10,-51 12,-75 42,-108 100,-108 13,0 29,-7 36,-15 15,-18 46,-20 56,-4 12,19 25,-16 18,-49 -6,-31 -15,-36 -87,-51 -31,-7 -39,-5 -47,10 -11,20 -33,17 -62,-9 -27,-22 -22,-31 25,-51 74,-32 87,-34 87,-16 0,13 6,15 31,10 40,-9 89,16 112,58 16,27 16,32 2,53 -8,13 -15,29 -15,37 0,27 -74,77 -114,77 -14,0 -37,5 -51,12 -25,11 -26,15 -20,57 4,26 8,47 8,47 7,7 102,-16 105,-25 7,-20 41,-12 58,14 17,26 12,45 -12,45 -8,0 -14,4 -14,9 0,4 -18,5 -40,1 -22,-4 -40,-4 -40,-1 0,11 -62,8 -87,-4 z"
       id="path61" />
    <path
       d="m 18080,2201 c -18,-5 -34,-25 -57,-71 -18,-36 -33,-72 -33,-80 0,-8 -11,-35 -25,-59 -14,-23 -25,-55 -25,-70 0,-15 -4,-31 -9,-36 -5,-6 -13,-27 -16,-47 l -7,-38 h 36 c 31,0 37,4 42,28 11,46 22,52 95,52 h 68 l 23,-40 c 35,-61 85,-51 54,12 -9,17 -16,38 -16,47 0,9 -9,27 -20,41 -11,14 -20,41 -20,63 0,20 -4,37 -10,37 -5,0 -10,8 -10,18 0,10 -7,27 -15,40 -9,12 -17,42 -18,67 -1,25 -4,44 -7,44 -3,-1 -16,-4 -30,-8 z"
       id="path62" />
    <path
       d="m 18433,2198 c -19,-25 -32,-79 -24,-101 4,-12 7,-77 5,-145 -3,-113 -2,-124 17,-143 20,-20 21,-20 40,-3 17,15 19,29 17,83 -3,62 -2,66 20,69 12,2 22,-1 22,-7 0,-6 7,-11 15,-11 8,0 15,5 15,10 0,6 14,10 30,10 53,0 98,62 96,133 -1,46 -4,52 -23,55 -12,2 -25,12 -28,22 -5,14 -19,20 -63,25 -31,3 -73,8 -93,11 -23,3 -39,0 -46,-8 z m 166,-74 c 26,-34 37,-67 22,-72 -6,-2 -11,-10 -11,-17 0,-15 -79,-31 -105,-21 -22,8 -34,48 -26,87 7,34 18,40 88,48 6,0 21,-11 32,-25 z"
       id="path63" />
    <path
       d="m 18887,2197 c -14,-10 -16,-36 -14,-199 1,-102 5,-190 10,-194 4,-4 20,-3 35,2 25,9 27,14 27,64 1,81 8,91 60,83 34,-4 50,-1 72,14 15,11 34,22 42,24 7,3 19,22 27,44 11,34 11,46 -2,86 -19,58 -44,71 -146,71 -40,1 -78,5 -84,9 -6,5 -18,3 -27,-4 z m 168,-67 c 14,-15 21,-17 32,-9 10,9 13,8 13,-4 0,-9 -4,-19 -10,-22 -5,-3 -10,-16 -10,-28 -1,-38 -22,-54 -70,-54 -25,-1 -51,4 -57,9 -14,11 -18,107 -5,109 22,2 56,10 61,14 10,10 29,4 46,-15 z"
       id="path64" />
    <path
       d="m 19680,2183 c 0,-10 11,-38 24,-63 14,-25 32,-60 40,-78 9,-18 25,-45 36,-59 17,-21 19,-35 14,-74 -8,-61 1,-95 27,-110 33,-17 42,2 41,92 -1,63 3,89 19,117 10,20 19,42 19,49 0,6 16,25 36,41 30,25 35,35 32,63 -3,30 -7,34 -35,37 -28,3 -34,-1 -51,-35 -11,-21 -25,-58 -32,-81 -13,-50 -30,-51 -46,-4 -5,18 -15,37 -22,44 -7,7 -12,20 -12,30 0,11 -14,23 -36,33 -47,19 -54,19 -54,-2 z"
       id="path65" />
    <path
       d="m 19349,2174 c -19,-23 -21,-342 -2,-365 19,-23 232,-20 247,4 21,33 -21,48 -134,47 -61,0 -78,11 -62,42 9,17 10,33 2,57 -6,24 -6,47 1,73 6,25 6,44 0,56 -5,10 -7,37 -4,60 5,37 3,42 -14,42 -12,0 -27,-7 -34,-16 z"
       id="path66" />
  </g>
</svg>
